# xmcd CD database file
#
# Track frame offsets:
#	150
#	30597
#	57531
#	76578
#	92529
#	106491
#	139285
#	165577
#	201593
#	234018
#
# Disc length: 3661 seconds
#
# Revision: 0
# Processed by: cddbd v1.5.2PL0 Copyright (c) Steve Scherf et al.
# Submitted via: CDex 1.50beta10
#
DISCID=7a0e4b0a
DTITLE=The Jumblebox Consortium - The Jumblebox Consortium
DYEAR=2009
DGENRE=Jazz
TTITLE0=All This ... Maybe More
TTITLE1=Dope Is Shit
TTITLE2=A Meal Deal
TTITLE3=I Love A Girl
TTITLE4=The Accordion Song
TTITLE5=The Jumble Wizzard
TTITLE6=No Women
TTITLE7=Take Five
TTITLE8=I'm Out Of Here
TTITLE9=All We've Left Behind
EXTD=YEAR: 2009
EXTT0=
EXTT1=
EXTT2=
EXTT3=
EXTT4=
EXTT5=
EXTT6=
EXTT7=
EXTT8=
EXTT9=
PLAYORDER=
